<?xml version="1.0" encoding="UTF-8"?>
<svg width="64" height="64" version="1.1" viewBox="0 0 64 64" xmlns="http://www.w3.org/2000/svg">
	<defs>
		<linearGradient id="LG" x1="31.56" x2="40.51" y1="15.16" y2="49.55" gradientUnits="userSpaceOnUse">
			<stop offset="0" stop-color="#32bfea"/>
			<stop offset=".5" stop-color="#8149ca"/>
			<stop offset="1" stop-color="#ef175e"/>
		</linearGradient>
	</defs>
	<circle cx="32" cy="32" r="32" fill="#1f1c21"/>
	<path d="m44.132 46.517c-3.0947 3.0947-7.6289 4.2592-11.832 3.0386-4.203-1.2205-7.4081-4.6325-8.3638-8.9035l-4.1891 4.1864c-0.78105 0.78105-2.0474 0.78105-2.8284 0s-0.78105-2.0474 0-2.8284l10.728-10.728-4.319e-6 6.7495c0 3.2357 1.9491 6.1528 4.9385 7.391s6.4303 0.5538 8.7183-1.7342l8.1421-8.1421c0.78105-0.78105 0.78105-2.0474 0-2.8284s-2.0474-0.78105-2.8284 0l-8.1421 8.1421c-1.144 1.144-2.8645 1.4862-4.3592 0.86709-1.4947-0.61912-2.4693-2.0777-2.4693-3.6955l4.32e-6 -16.406-18.263 18.263c-0.78105 0.78105-2.0474 0.78105-2.8284 2.016e-6s-0.78105-2.0474 3.121e-6 -2.8284l25.092-25.092v26.063l8.1421-8.1421c2.3431-2.3431 6.1421-2.3431 8.4853 0 2.3431 2.3431 2.3431 6.1421 0 8.4853z" stroke="#000" stroke-linecap="round" stroke-linejoin="round" stroke-width="6"/>
	<path d="m44.132 46.517c-3.0947 3.0947-7.6289 4.2592-11.832 3.0386-4.203-1.2205-7.4081-4.6325-8.3638-8.9035l-4.1891 4.1864c-0.78105 0.78105-2.0474 0.78105-2.8284 0s-0.78105-2.0474 0-2.8284l10.728-10.728-4.319e-6 6.7495c0 3.2357 1.9491 6.1528 4.9385 7.391s6.4303 0.5538 8.7183-1.7342l8.1421-8.1421c0.78105-0.78105 0.78105-2.0474 0-2.8284s-2.0474-0.78105-2.8284 0l-8.1421 8.1421c-1.144 1.144-2.8645 1.4862-4.3592 0.86709-1.4947-0.61912-2.4693-2.0777-2.4693-3.6955l4.32e-6 -16.406-18.263 18.263c-0.78105 0.78105-2.0474 0.78105-2.8284 2.016e-6s-0.78105-2.0474 3.121e-6 -2.8284l25.092-25.092v26.063l8.1421-8.1421c2.3431-2.3431 6.1421-2.3431 8.4853 0 2.3431 2.3431 2.3431 6.1421 0 8.4853z" stroke="url(#LG)" stroke-linecap="round" stroke-linejoin="round" stroke-width="2"/>
</svg>
